{"title":"Dracula(1992)Un,Cut 720p BDRip[Hindi(448Kbps)-Eng]DD5.1-DGrea8","uid":9159008,"size":1823377753,"categoryP":"video","categoryS":"hd___movies","magnet":"?xt=urn:btih:d94df3d222f5fdfb4890785742910852c3598f38&amp;dn=Dracula%281992%29Un%2CCut+720p+BDRip%5BHindi%28448Kbps%29-Eng%5DDD5.1-DGrea8&amp;tr=udp%3A%2F%2Ftracker.openbittorrent.com%3A80&amp;tr=udp%3A%2F%2Fopen.demonii.com%3A1337&amp;tr=udp%3A%2F%2Ftracker.coppersurfer.tk%3A6969&amp;tr=udp%3A%2F%2Fexodus.desync.com%3A6969","seeders":1,"leechers":1,"uploader":"DGrea8","files":-1,"time":1383842641,"description":"   Dracula (1992)Un,Cut 720p BDRip[Hindi(448Kbps)-Eng(640kbps)]DD5.1-DGrea8\n\n\nStoryline:-\n\n\nThis version of Dracula is closely based on Bram Stoker's classic novel of the same name. A young lawyer (Jonathan Harker) is assigned to a gloomy village in the mists of eastern Europe. He is captured and imprisoned by the undead vampire Dracula, who travels to London, inspired by a photograph of Harker's betrothed, Mina Murray. In Britain, Dracula begins a reign of seduction and terror, draining the life from Mina's closest friend, Lucy Westenra. Lucy's friends gather together to try to drive Dracula away.\n\n\nCast Info:. \n\n\nGary Oldman\t ...\tDracula\nWinona Ryder\t ...\tMina Murray / Elisabeta\nAnthony Hopkins\t ...\tProfessor Abraham Van Helsing\nKeanu Reeves\t ...\tJonathan Harker\nRichard E. Grant\t ...\tDr. Jack Seward\nCary Elwes\t ...\tLord Arthur Holmwood\nBilly Campbell\t ...\tQuincey P. Morris (as Bill Campbell)\nSadie Frost\t ...\tLucy Westenra\nTom Waits\t ...\tR.M. Renfield\nMonica Bellucci\t ...\tDracula's Bride\nMichaela Bercu\t ...\tDracula's Bride\nFlorina Kendrick\t ...\tDracula's Bride\nJay Robinson\t ...\tMr. Hawkins\nI.M. Hobson\t ...\tHobbs\nLaurie Franks\t ...\tLucy's Maid\n\n\nGeneral Info:. \n\n\nDirector: Francis Ford Coppola\nWriters: Bram Stoker (novel), James V. Hart (screenplay)\nStars: Gary Oldman, Winona Ryder, Anthony Hopkins\nRelease Date: 13 November 1992 (USA)\nGenres: Drama | Fantasy | Horror\n\n\n\nVideo Info:. \n\nVideo\nID : 1\nFormat : AVC\nFormat/Info : Advanced Video Codec\nFormat profile : &lt;a class=&quot;__cf_email__&quot; href=&quot;/cdn-cgi/l/email-protection&quot; data-cfemail=&quot;337b5a545b737f001d02&quot;&gt;[email&amp;#160;protected]&lt;/a&gt;&lt;script cf-hash='f9e31' type=&quot;text/javascript&quot;&gt;\n/* &lt;![CDATA[ */!function(){try{var t=&quot;currentScript&quot;in document?document.currentScript:function(){for(var t=document.getElementsByTagName(&quot;script&quot;),e=t.length;e--;)if(t[e].getAttribute(&quot;cf-hash&quot;))return t[e]}();if(t&amp;&amp;t.previousSibling){var e,r,n,i,c=t.previousSibling,a=c.getAttribute(&quot;data-cfemail&quot;);if(a){for(e=&quot;&quot;,r=parseInt(a.substr(0,2),16),n=2;a.length-n;n+=2)i=parseInt(a.substr(n,2),16)^r,e+=String.fromCharCode(i);e=document.createTextNode(e),c.parentNode.replaceChild(e,c)}}}catch(u){}}();/* ]]&gt; */&lt;/script&gt;\nFormat settings, CABAC : Yes\nFormat settings, ReFrames : 5 frames\nMuxing mode : Header stripping\nCodec ID : V_MPEG4/ISO/AVC\nDuration : 2h 2mn\nBit rate : 790 Kbps\nWidth : 1 280 pixels\nHeight : 688 pixels\nDisplay aspect ratio : 1.85:1\nFrame rate mode : Constant\nFrame rate : 25.000 fps\nOriginal frame rate : 23.976 fps\nColor space : YUV\nChroma subsampling : 4:2:0\nBit depth : 8 bits\nScan type : Progressive\n\n\nAudio Info:. \n\nAudio #1\nID : 2\nFormat : AC-3\nFormat/Info : Audio Coding 3\nMode extension : CM (complete main)\nFormat settings, Endianness : Big\nMuxing mode : Header stripping\nCodec ID : A_AC3\nDuration : 2h 2mn\nBit rate mode : Constant\nBit rate : 448 Kbps\nChannel(s) : 6 channels\nChannel positions : Front: L C R, Side: L R, LFE\nSampling rate : 48.0 KHz\nBit depth : 16 bits\nCompression mode : Lossy\nDelay relative to video : 2s 0ms\nStream size : 392 MiB (23%)\nLanguage : Hindi\nDefault : No\nForced : No\n\nAudio #2\nID : 3\nFormat : AC-3\nFormat/Info : Audio Coding 3\nMode extension : CM (complete main)\nFormat settings, Endianness : Big\nMuxing mode : Header stripping\nCodec ID : A_AC3\nDuration : 2h 2mn\nBit rate mode : Constant\nBit rate : 640 Kbps\nChannel(s) : 6 channels\nChannel positions : Front: L C R, Side: L R, LFE\nSampling rate : 48.0 KHz\nBit depth : 16 bits\nCompression mode : Lossy\nStream size : 559 MiB (33%)\nLanguage : English\nDefault : Yes\nSubtitle : English\n\n\n\n\nScreen Shoots:-\n  &lt;a href=&quot;\nhttp://img18.imageshack.us/img18/31/uwlt.jpg&quot; rel=&quot;nofollow&quot; target=&quot;_NEW&quot;&gt;\nhttp://img18.imageshack.us/img18/31/uwlt.jpg&lt;/a&gt;\n &lt;a href=&quot;\nhttp://img855.imageshack.us/img855/6724/agd2.jpg&quot; rel=&quot;nofollow&quot; target=&quot;_NEW&quot;&gt;\nhttp://img855.imageshack.us/img855/6724/agd2.jpg&lt;/a&gt;\n &lt;a href=&quot;\nhttp://img834.imageshack.us/img834/1308/jmqt.jpg&quot; rel=&quot;nofollow&quot; target=&quot;_NEW&quot;&gt;\nhttp://img834.imageshack.us/img834/1308/jmqt.jpg&lt;/a&gt;\n &lt;a href=&quot;\nhttp://img11.imageshack.us/img11/8349/svu2.jpg&quot; rel=&quot;nofollow&quot; target=&quot;_NEW&quot;&gt;\nhttp://img11.imageshack.us/img11/8349/svu2.jpg&lt;/a&gt;\n\n\n\nNote:-- Check The Torrent\n\n\nCheck The Sample Video In This Torrent\t\t\t","torrent":{"xt":"urn:btih:d94df3d222f5fdfb4890785742910852c3598f38","amp;dn":"Dracula%281992%29Un%2CCut+720p+BDRip%5BHindi%28448Kbps%29-Eng%5DDD5.1-DGrea8","amp;tr":["udp%3A%2F%2Ftracker.openbittorrent.com%3A80","udp%3A%2F%2Fopen.demonii.com%3A1337","udp%3A%2F%2Ftracker.coppersurfer.tk%3A6969","udp%3A%2F%2Fexodus.desync.com%3A6969"],"infoHash":"d94df3d222f5fdfb4890785742910852c3598f38","infoHashBuffer":{"type":"Buffer","data":[217,77,243,210,34,245,253,251,72,144,120,87,66,145,8,82,195,89,143,56]},"announce":[],"urlList":[]}}